<?xml version="1.0" encoding="UTF-8" standalone="no"?>
<svg
   width="700pt"
   height="700pt"
   viewBox="0 0 700 700"
   version="1.1"
   id="svg5618"
   sodipodi:docname="noun-faq-2031825.svg"
   xmlns:inkscape="http://www.inkscape.org/namespaces/inkscape"
   xmlns:sodipodi="http://sodipodi.sourceforge.net/DTD/sodipodi-0.dtd"
   xmlns="http://www.w3.org/2000/svg"
   xmlns:svg="http://www.w3.org/2000/svg">
  <sodipodi:namedview
     id="namedview5620"
     pagecolor="#ffffff"
     bordercolor="#666666"
     borderopacity="1.0"
     inkscape:showpageshadow="2"
     inkscape:pageopacity="0.0"
     inkscape:pagecheckerboard="0"
     inkscape:deskcolor="#d1d1d1"
     inkscape:document-units="pt"
     showgrid="false" />
  <defs
     id="defs5566" />
  <g
     id="g5742"
     transform="matrix(1.2439225,0,0,1.2340338,-87.968685,5.4223323)"
     style="stroke-width:0.807123">
    <path
       d="m 463.75,490 h 70 v 17.5 h -70 z m 8.75,35 H 525 v 17.5 H 472.5 Z M 498.75,210 C 436.031,210 385,261.031 385,323.75 c 0,38.676 19.992,74.91 52.5,95.75 v 44.25 c 0,4.84 3.922,8.75 8.75,8.75 h 105 c 4.828,0 8.75,-3.91 8.75,-8.75 V 419.5 c 32.508,-20.852 52.5,-57.078 52.5,-95.75 C 612.5,261.031 561.469,210 498.75,210 Z M 455,455 v -17.5 h 87.5 V 455 Z m 91.867,-47.977 a 8.735,8.735 0 0 0 -4.367,7.57 V 420 H 455 v -5.406 a 8.75,8.75 0 0 0 -4.367,-7.57 C 420.945,389.82 402.5,357.91 402.5,323.75 c 0,-53.07 43.18,-96.25 96.25,-96.25 53.07,0 96.25,43.18 96.25,96.25 0,34.16 -18.445,66.07 -48.133,83.273 z"
       id="path5568"
       style="stroke-width:0.807123" />
    <path
       d="m 498.75,245 c -14.473,0 -26.25,11.777 -26.25,26.25 0,14.473 11.777,26.25 26.25,26.25 14.473,0 26.25,-11.777 26.25,-26.25 C 525,256.777 513.223,245 498.75,245 Z m 0,35 c -4.82,0 -8.75,-3.922 -8.75,-8.75 0,-4.828 3.93,-8.75 8.75,-8.75 4.82,0 8.75,3.922 8.75,8.75 0,4.828 -3.93,8.75 -8.75,8.75 z m 17.5,35 h -35 a 8.748,8.748 0 0 0 -8.75,8.75 v 70 c 0,4.84 3.922,8.75 8.75,8.75 h 35 c 4.828,0 8.75,-3.91 8.75,-8.75 v -70 c 0,-4.84 -3.922,-8.75 -8.75,-8.75 z m -8.75,70 H 490 v -52.5 h 17.5 z m -70,-245 H 455 v 17.5 h -17.5 z m 35,0 H 490 v 17.5 h -17.5 z m 35,0 H 525 v 17.5 h -17.5 z m 35,0 H 560 v 17.5 H 542.5 Z M 236.25,17.5 C 154.227,17.5 87.5,84.227 87.5,166.25 c 0,58.871 34.152,111.41 87.5,135.49 v 57.008 c 0,4.84 3.922,8.75 8.75,8.75 h 105 c 4.828,0 8.75,-3.91 8.75,-8.75 V 301.74 C 350.848,277.662 385,225.119 385,166.25 385,84.227 318.273,17.5 236.25,17.5 Z m 49.219,270.37 A 8.76,8.76 0 0 0 280,295.98 v 54.022 H 192.5 V 295.98 a 8.752,8.752 0 0 0 -5.469,-8.109 C 137.199,267.683 105.001,219.945 105.001,166.251 105,93.879 163.878,35 236.25,35 c 72.372,0 131.25,58.879 131.25,131.25 0,53.691 -32.2,101.43 -82.032,121.62 z M 183.75,385 h 105 v 17.5 h -105 z m 17.5,35 h 70 v 17.5 h -70 z"
       id="path5570"
       style="stroke-width:0.807123" />
    <path
       d="m 238.73,70.035 c -23.809,-0.488 -46.402,8.137 -63.48,24.746 -17.09,16.605 -26.496,38.883 -26.496,62.719 0,4.84 3.922,8.75 8.75,8.75 h 35 c 4.828,0 8.75,-3.91 8.75,-8.75 0,-19.301 15.699,-35 35,-35 18.969,0 35,16.031 35,35 0,19.301 -15.699,35 -35.156,35 h -0.121 c -7.27,0 -14.305,2.852 -19.32,7.84 -4.848,4.82 -7.508,11.242 -7.508,18.086 l -0.004,35.324 c 0,4.84 3.922,8.75 8.75,8.75 h 36.594 c 4.77,0 8.664,-3.832 8.75,-8.594 l 0.227,-13.211 c 35.824,-11.648 60.289,-44.941 60.289,-83.195 0,-46.934 -38.141,-86.18 -85.023,-87.465 z m 14.043,155.5 a 8.746,8.746 0 0 0 -6.695,8.348 l -0.192,11.113 H 226.644 V 218.43 c 0,-2.758 1.278,-4.61 2.364,-5.688 1.761,-1.765 4.558,-2.527 7.246,-2.746 28.953,0 52.5,-23.547 52.5,-52.5 0,-28.453 -24.047,-52.5 -52.5,-52.5 -25.961,0 -47.59,18.953 -51.766,43.75 h -17.691 c 1.941,-15.723 9.11,-30.188 20.66,-41.422 13.66,-13.3 31.648,-20.562 50.793,-19.793 36.855,1.008 68.004,33.047 68.004,69.965 0,32.445 -21.988,60.426 -53.48,68.04 z M 236.25,280 c -14.473,0 -26.25,11.777 -26.25,26.25 0,14.473 11.777,26.25 26.25,26.25 14.473,0 26.25,-11.777 26.25,-26.25 0,-14.473 -11.777,-26.25 -26.25,-26.25 z m 0,35 c -4.82,0 -8.75,-3.922 -8.75,-8.75 0,-4.828 3.93,-8.75 8.75,-8.75 4.82,0 8.75,3.922 8.75,8.75 0,4.828 -3.93,8.75 -8.75,8.75 z M 175,472.5 h 17.5 V 490 H 175 Z m 35,0 h 17.5 V 490 H 210 Z m 35,0 h 17.5 V 490 H 245 Z m 35,0 h 17.5 V 490 H 280 Z"
       id="path5572"
       style="stroke-width:0.807123" />
  </g>
</svg>
