<?xml version="1.0" encoding="UTF-8" standalone="no"?>
<svg
   width="700pt"
   height="700pt"
   version="1.1"
   viewBox="0 0 700 700"
   id="svg212"
   sodipodi:docname="noun-knowledge-4351486.svg"
   xmlns:inkscape="http://www.inkscape.org/namespaces/inkscape"
   xmlns:sodipodi="http://sodipodi.sourceforge.net/DTD/sodipodi-0.dtd"
   xmlns="http://www.w3.org/2000/svg"
   xmlns:svg="http://www.w3.org/2000/svg">
  <sodipodi:namedview
     id="namedview214"
     pagecolor="#ffffff"
     bordercolor="#666666"
     borderopacity="1.0"
     inkscape:showpageshadow="2"
     inkscape:pageopacity="0.0"
     inkscape:pagecheckerboard="0"
     inkscape:deskcolor="#d1d1d1"
     inkscape:document-units="pt"
     showgrid="false" />
  <defs
     id="defs80" />
  <g
     id="g210">
    <path
       d="M 112.76684,285.63481 H 83.963586 c -6.098165,-0.0313 -11.959607,2.27708 -16.29636,6.41072 -4.335921,4.13363 -6.79848,9.75689 -6.840149,15.63484 v 336.70112 c 0.04179,5.8783 2.504228,11.50166 6.840149,15.63484 4.335922,4.13364 10.197601,6.44199 16.29636,6.41072 H 326.1949 c 9.55308,0.0134 18.72532,-3.62813 25.49697,-10.13276 6.77058,6.50463 15.94376,10.14616 25.49697,10.13276 h 242.23131 c 6.09816,0.0313 11.9596,-2.27708 16.29635,-6.41072 4.33593,-4.13364 6.79848,-9.75689 6.84015,-15.63484 V 307.68037 c -0.0418,-5.8783 -2.50422,-11.50167 -6.84015,-15.63484 -4.33592,-4.13364 -10.1976,-6.44199 -16.29635,-6.41072 h -28.80326 v -30.01794 c -0.0185,-7.98989 -3.32041,-15.64858 -9.18209,-21.29463 -5.86631,-5.64123 -13.81041,-8.81298 -22.09215,-8.81298 h -17.90973 c -0.55185,3.27917 -1.2057,6.57174 -1.95694,9.88218 l -0.0464,0.20579 c -0.75126,3.3015 -1.60459,6.62087 -2.55053,9.95375 h 22.46374 c 5.77822,-0.009 10.47124,4.49153 10.49914,10.06565 v 334.67404 c -0.0835,1.14971 -1.1037,2.03097 -2.29552,1.98184 H 377.07594 c -5.17075,-0.005 -10.28581,1.06472 -14.9881,3.13602 v -69.26881 h -20.77557 v 69.26881 c -4.70228,-2.07129 -9.81735,-3.14048 -14.98809,-3.13602 H 135.85373 c -1.19181,0.0493 -2.21207,-0.83209 -2.29553,-1.98184 V 255.61663 c 0.0278,-5.57412 4.72093,-10.07458 10.49915,-10.06565 h 22.47323 c -1.89212,-6.59854 -3.41313,-13.28709 -4.56327,-20.04173 h -17.90973 c -8.28245,0 -16.22631,3.17175 -22.09215,8.81298 -5.86168,5.6457 -9.16357,13.30428 -9.18209,21.29463 z m 249.30688,340.70946 c 0.13448,-7.8646 6.83552,-14.13686 14.98809,-14.03379 h 190.47045 c 6.08428,0.0268 11.92755,-2.28155 16.25362,-6.41072 4.32666,-4.12917 6.77521,-9.74349 6.817,-15.61309 V 305.67116 h 28.80326 c 1.22421,-0.0671 2.277,0.82762 2.36046,2.00417 v 336.70112 c -0.0835,1.17651 -1.13616,2.07128 -2.36046,2.00417 H 377.17483 c -8.18035,0.13868 -14.94179,-6.13334 -15.10919,-14.02921 z M 135.83366,612.31048 h 190.47046 c 8.15257,-0.10285 14.85394,6.16907 14.98809,14.03379 v 6.01252 c -0.16694,7.89587 -6.92824,14.16779 -15.10919,14.02921 H 83.951714 c -1.224216,0.0671 -2.277003,-0.82762 -2.360461,-2.00417 V 307.68071 c 0.08346,-1.1765 1.136162,-2.07128 2.360461,-2.00417 h 28.803256 v 284.61552 c 0.0418,5.86936 2.49034,11.48334 6.817,15.61308 4.32666,4.12917 10.16982,6.43752 16.25362,6.41072 z"
       id="path82"
       style="stroke-width:1" />
    <path
       d="m 403.62486,551.1935 c -5.73643,0 -10.38778,4.48706 -10.38778,10.02086 0,5.53381 4.65135,10.02087 10.38778,10.02087 h 135.04123 c 5.73643,0 10.38778,-4.48706 10.38778,-10.02087 0,-5.5338 -4.65135,-10.02086 -10.38778,-10.02086 z"
       id="path84"
       style="stroke-width:1" />
    <path
       d="M 538.65421,511.11003 H 406.73526 c -3.07929,5.1939 -7.71201,9.36774 -13.29518,11.9758 0.95994,4.68839 5.22168,8.0704 10.17908,8.06593 h 135.04123 c 5.73643,0 10.38778,-4.48705 10.38778,-10.02086 0,-5.53381 -4.65135,-10.02087 -10.38778,-10.02087 z"
       id="path86"
       style="stroke-width:1" />
    <path
       d="M 538.65421,471.02657 H 418.51204 c -3.83517,3.37308 -8.09226,6.26756 -12.66953,8.61611 2.38361,3.44019 3.9603,7.33665 4.61882,11.42562 h 128.19122 c 5.73644,0 10.38779,-4.48706 10.38779,-10.02087 0,-5.53381 -4.65135,-10.02086 -10.38779,-10.02086 z"
       id="path88"
       style="stroke-width:1" />
    <path
       d="m 538.65421,430.9431 h -98.21503 c -1.03878,3.20759 -2.02651,6.46432 -2.90763,9.77029 -0.95531,3.52963 -2.23985,6.96982 -3.84443,10.27144 h 104.96769 c 5.73643,0 10.38778,-4.48706 10.38778,-10.02086 0,-5.53381 -4.65135,-10.02087 -10.38778,-10.02087 z"
       id="path90"
       style="stroke-width:1" />
    <path
       d="m 538.65421,390.85963 h -81.23367 c -3.37609,6.46432 -6.54336,13.12562 -9.50667,20.04174 h 90.74058 c 5.73643,0 10.38779,-4.48706 10.38779,-10.02087 0,-5.53381 -4.65136,-10.02087 -10.38779,-10.02087 z"
       id="path92"
       style="stroke-width:1" />
    <path
       d="M 538.65421,350.77617 H 481.1035 c -4.15511,6.26309 -8.4122,12.97788 -12.56744,20.04173 h 70.11697 c 5.73643,0 10.38778,-4.48706 10.38778,-10.02087 0,-5.53381 -4.65135,-10.02086 -10.38778,-10.02086 z"
       id="path94"
       style="stroke-width:1" />
    <path
       d="m 538.65421,310.6927 h -31.3723 c -0.72807,1.3018 -1.50712,2.60359 -2.33731,3.90997 -3.16738,5.05968 -6.80311,10.62029 -10.48976,16.13188 h 44.19854 c 5.73644,0 10.38779,-4.48706 10.38779,-10.02087 0,-5.53381 -4.65135,-10.02087 -10.38779,-10.02087 z"
       id="path96"
       style="stroke-width:1" />
    <path
       d="m 538.65421,270.60923 h -10.59649 c -2.28626,5.35939 -4.77648,10.82162 -7.58213,16.38269 -0.62142,1.20342 -1.24749,2.45597 -1.9199,3.65939 h 20.09888 c 5.73643,0 10.38779,-4.48706 10.38779,-10.02087 0,-5.53381 -4.65136,-10.02086 -10.38779,-10.02086 z"
       id="path98"
       style="stroke-width:1" />
    <path
       d="m 164.6939,571.23523 h 135.04123 c 5.73643,0 10.38778,-4.48706 10.38778,-10.02087 0,-5.5338 -4.65135,-10.02086 -10.38778,-10.02086 H 164.6939 c -5.73643,0 -10.38779,4.48706 -10.38779,10.02086 0,5.53381 4.65136,10.02087 10.38779,10.02087 z"
       id="path100"
       style="stroke-width:1" />
    <path
       d="m 164.6939,531.15176 h 135.04123 c 4.9574,0.005 9.21913,-3.37754 10.17908,-8.06593 -5.58341,-2.60806 -10.21624,-6.78201 -13.29518,-11.9758 H 164.70007 c -5.73643,0 -10.38778,4.48706 -10.38778,10.02087 0,5.53381 4.65135,10.02086 10.38778,10.02086 z"
       id="path102"
       style="stroke-width:1" />
    <path
       d="m 164.6939,491.0683 h 128.19122 c 0.65852,-4.08886 2.23522,-7.98543 4.61883,-11.42562 -4.5679,-2.33973 -8.8111,-5.2341 -12.61849,-8.61611 H 164.6958 c -5.73643,0 -10.38779,4.48705 -10.38779,10.02086 0,5.53381 4.65136,10.02087 10.38779,10.02087 z"
       id="path104"
       style="stroke-width:1" />
    <path
       d="m 164.6939,450.98483 h 104.96769 c -1.60458,-3.3015 -2.88911,-6.74169 -3.84443,-10.27144 -0.88111,-3.30597 -1.86885,-6.56281 -2.90763,-9.77029 h -98.21504 c -5.73643,0 -10.38778,4.48706 -10.38778,10.02087 0,5.5338 4.65135,10.02086 10.38778,10.02086 z"
       id="path106"
       style="stroke-width:1" />
    <path
       d="m 164.6939,410.90137 h 90.73583 c -2.95868,-6.91624 -6.13069,-13.57685 -9.50666,-20.04174 h -81.22893 c -5.73643,0 -10.38779,4.48706 -10.38779,10.02087 0,5.53381 4.65136,10.02087 10.38779,10.02087 z"
       id="path108"
       style="stroke-width:1" />
    <path
       d="m 164.6939,370.8179 h 70.11697 c -4.15512,-7.06385 -8.41221,-13.77841 -12.56744,-20.04173 h -57.55072 c -5.73643,0 -10.38778,4.48705 -10.38778,10.02086 0,5.53381 4.65135,10.02087 10.38778,10.02087 z"
       id="path110"
       style="stroke-width:1" />
    <path
       d="m 164.6939,330.73443 h 44.19855 c -3.79338,-5.66356 -7.3225,-11.0722 -10.43884,-16.13188 -0.83009,-1.30179 -1.60921,-2.60359 -2.38824,-3.90997 h -31.3723 c -5.73643,0 -10.38779,4.48706 -10.38779,10.02087 0,5.53381 4.65136,10.02087 10.38779,10.02087 z"
       id="path112"
       style="stroke-width:1" />
    <path
       d="m 164.6939,290.65097 h 20.09888 c -0.67705,-1.25267 -1.29853,-2.45598 -1.9199,-3.6594 -2.80565,-5.56072 -5.29587,-11.02295 -7.58213,-16.38268 h -10.59649 c -5.73644,0 -10.38779,4.48706 -10.38779,10.02087 0,5.5338 4.65135,10.02086 10.38779,10.02086 z"
       id="path114"
       style="stroke-width:1" />
    <path
       d="m 417.43171,435.6844 c 12.1365,-45.12482 37.85547,-83.46867 56.62709,-111.47327 4.79049,-7.13989 9.30722,-13.88605 13.03519,-19.88941 5.69939,-9.22458 10.5084,-17.75583 14.70555,-26.09434 13.37946,-24.87351 20.65923,-52.38107 21.27656,-80.39483 0,-95.24749 -75.51506,-172.736842 -168.32963,-172.736842 h -6.13996 c -92.81338,0 -168.32962,77.491652 -168.32962,172.736842 0.62141,28.01834 7.90207,55.5259 21.27656,80.40399 4.21079,8.36119 9.02443,16.8969 14.71504,26.08976 3.72381,6.00359 8.24529,12.75456 13.03994,19.90316 18.77162,27.99544 44.47753,66.33928 56.61403,111.45952 h 0.005 c 2.07756,8.27621 6.85867,15.68867 13.63353,21.14689 6.77984,5.46223 15.19229,8.67429 24.0035,9.17534 h 56.2282 c 8.8111,-0.50105 17.22829,-3.71757 24.0035,-9.17534 6.77522,-5.45776 11.55645,-12.87481 13.63353,-21.15147 z m -37.63702,10.28484 H 362.06541 V 330.735 h 10.38778 c 5.73643,0 10.38779,-4.48705 10.38779,-10.02086 0,-5.53381 -4.65136,-10.02087 -10.38779,-10.02087 h -41.55114 c -5.73644,0 -10.38779,4.48706 -10.38779,10.02087 0,5.53381 4.65135,10.02086 10.38779,10.02086 h 10.38778 V 445.96924 H 323.5653 c -4.1969,-0.50552 -8.13405,-2.2457 -11.27354,-4.9881 -3.13948,-2.74239 -5.32377,-6.34807 -6.26045,-10.33397 -12.98058,-48.24332 -39.74308,-88.15729 -59.28043,-117.30713 -4.68839,-6.99227 -9.12178,-13.60433 -12.65054,-19.29962 -5.37933,-8.68769 -9.91481,-16.72282 -13.85671,-24.55971 l 0.005,0.009 c -11.98335,-22.16272 -18.54962,-46.67319 -19.19426,-71.65778 0,-84.20162 66.18979,-152.695104 147.55406,-152.695104 h 6.13532 c 81.36783,0 147.55406,68.495774 147.55406,152.695104 -0.63996,24.98459 -7.20652,49.49621 -19.19901,71.6532 -3.92789,7.81536 -8.45399,15.85015 -13.84721,24.55971 -3.52912,5.69495 -7.95776,12.29761 -12.64105,19.2813 -19.5421,29.15442 -46.30935,69.06839 -59.28874,117.33003 l 0.005,-0.005 c -0.93675,3.98601 -3.12096,7.59169 -6.26045,10.33397 -3.13486,2.74229 -7.072,4.4826 -11.27354,4.98811 z"
       id="path116"
       style="stroke-width:1" />
    <path
       d="m 323.57361,486.05214 c -5.73643,0 -10.38779,4.48706 -10.38779,10.02087 0,5.5338 4.65136,10.02086 10.38779,10.02086 h 56.2282 c 5.73643,0 10.38779,-4.48706 10.38779,-10.02086 0,-5.53381 -4.65136,-10.02087 -10.38779,-10.02087 z"
       id="path118"
       style="stroke-width:1" />
    <path
       d="m 460.51432,218.03118 c 10.02142,-9.02325 15.74907,-21.63019 15.82267,-34.8543 0,-13.03628 -5.56025,-25.49537 -15.36798,-34.46033 0.0649,-0.97077 0.10197,-1.93706 0.10197,-2.89437 v -0.005 c -0.22723,-11.48331 -4.69765,-22.50627 -12.60424,-31.091 -7.91146,-8.58485 -18.73482,-14.15863 -30.52822,-15.724172 -7.58676,-11.797136 -21.00232,-18.919396 -35.39208,-18.793419 -11.73725,-0.02684 -22.94573,4.724123 -30.86182,13.090115 -7.91608,-8.365649 -19.12421,-13.116456 -30.86181,-13.090115 -14.38976,-0.125267 -27.80603,6.996741 -35.39208,18.793419 -11.79293,1.565772 -22.62163,7.139892 -30.52822,15.724172 -7.90683,8.58485 -12.3775,19.60769 -12.60425,31.09102 0,0.95736 0.037,1.92813 0.10198,2.89884 -9.80809,8.96507 -15.36799,21.42404 -15.36799,34.46033 0.0742,13.22411 5.80138,25.83093 15.82743,34.85429 -0.37563,2.31728 -0.56113,4.65701 -0.56113,7.00121 0.22724,11.47876 4.69765,22.50629 12.60424,31.09103 7.90683,8.58038 18.73007,14.15862 30.52347,15.72417 7.58677,11.79713 21.00233,18.92283 35.39683,18.798 11.73725,0.0268 22.94573,-4.72859 30.86182,-13.0947 7.91609,8.36565 19.12421,13.12104 30.86182,13.0947 14.3945,0.12527 27.81077,-7.00121 35.39682,-18.798 11.79293,-1.56578 22.61689,-7.14436 30.52348,-15.72417 7.90682,-8.58485 12.37749,-19.61227 12.60424,-31.09103 0,-2.3442 -0.1855,-4.68381 -0.55649,-7.00121 z m -119.21618,33.96329 c -0.16694,5.08648 -2.41614,9.90004 -6.25582,13.38559 -3.83517,3.48944 -8.95023,5.36832 -14.2188,5.22516 -5.69013,-0.005 -11.1344,-2.22337 -15.09969,-6.15567 6.20489,-6.54036 9.92408,-14.91907 10.54545,-23.76377 0.44055,-5.52041 -3.8398,-10.33844 -9.55772,-10.75898 -5.72254,-0.42498 -10.71699,3.70417 -11.15292,9.22012 -0.25969,4.97917 -2.5738,9.64511 -6.43675,12.95497 -7.00243,-0.70683 -13.50412,-3.83839 -18.29437,-8.81744 -4.79049,-4.9747 -7.5451,-11.46158 -7.75368,-18.25287 0,-2.6439 0.422,-5.26994 1.24748,-7.78856 1.35409,-4.15597 -0.22724,-8.67876 -3.90937,-11.19291 -7.74905,-5.04169 -12.4511,-13.4165 -12.59949,-22.4307 -0.1484,-9.0142 4.27573,-17.52793 11.85323,-22.80635 3.18591,-2.31282 4.7163,-6.18248 3.94178,-9.95376 -0.35245,-1.65968 -0.52866,-3.34628 -0.5333,-5.0417 0.22259,-6.96536 3.1256,-13.60433 8.13868,-18.62392 5.01309,-5.0149 11.78367,-8.05701 18.99006,-8.53114 4.42876,2.42918 7.16947,6.9609 7.1741,11.87273 0.24114,5.35938 4.81365,9.58246 10.36927,9.58693 0.15767,0 0.31071,-0.005 0.46374,-0.009 h -0.005 c 2.7546,-0.11631 5.34692,-1.28393 7.20651,-3.24333 1.86422,-1.95492 2.84269,-4.5497 2.72219,-7.20254 -0.24578,-9.22904 -4.41487,-17.95739 -11.53317,-24.12566 3.89536,-3.40893 8.96412,-5.29228 14.22236,-5.29228 5.26809,-0.14316 10.37853,1.73573 14.21881,5.2207 3.83517,3.48497 6.08427,8.29407 6.25582,13.37642 z M 442.95955,206.0508 c -3.68214,2.51415 -5.26346,7.03694 -3.90937,11.19291 0.82546,2.51861 1.24749,5.14465 1.24749,7.78856 -0.20869,6.79541 -2.96794,13.28252 -7.76306,18.26546 -4.79512,4.97917 -11.30595,8.10614 -18.31337,8.80852 -3.84444,-3.31937 -6.15385,-7.98543 -6.40885,-12.95956 -0.43592,-5.51594 -5.43038,-9.64511 -11.15292,-9.22011 -5.71792,0.42052 -9.99828,5.23856 -9.55772,10.75897 0.62142,8.84436 4.34055,17.22329 10.54545,23.76377 -3.96493,3.9323 -9.40932,6.15121 -15.09969,6.15568 -5.26809,0.14315 -10.38316,-1.73573 -14.2188,-5.22517 -3.8398,-3.48497 -6.08891,-8.29854 -6.25582,-13.38559 V 118.84842 c 0.17158,-5.08202 2.42076,-9.89111 6.25582,-13.37643 3.8398,-3.48497 8.95023,-5.36385 14.2188,-5.2207 5.25883,0 10.32748,1.88782 14.22236,5.29228 -7.11842,6.16907 -11.28743,14.8973 -11.53317,24.12566 -0.12057,2.65284 0.85792,5.2475 2.72219,7.20701 1.85959,1.95493 4.45191,3.12262 7.20651,3.23886 0.15304,0.005 0.30607,0.009 0.46374,0.009 h -0.005 c 5.56026,-0.005 10.12803,-4.22754 10.36927,-9.58693 -0.0139,-4.92993 2.7546,-9.47505 7.22503,-11.86814 7.19725,0.48315 13.95406,3.52963 18.95801,8.54453 5.0037,5.01937 7.89744,11.6494 8.12004,18.6056 -0.005,1.69553 -0.18085,3.38201 -0.5333,5.0417 -0.77444,3.77128 0.7559,7.64094 3.94178,9.95822 7.5775,5.27442 12.00115,13.78757 11.85323,22.80177 -0.14792,9.0142 -4.85068,17.38935 -12.59949,22.43071 z"
       id="path120"
       style="stroke-width:1" />
    <path
       d="m 309.8736,190.76297 c -5.10117,1.28839 -8.39831,6.06176 -7.65633,11.10346 -4.81827,2.76473 -6.49705,8.71907 -3.78412,13.45201 2.70818,4.73752 8.82499,6.54483 13.81516,4.08439 4.01135,-1.89675 7.22503,-5.06414 9.10326,-8.97846 1.87349,-3.90997 2.30016,-8.32534 1.20107,-12.50376 -0.69561,-2.57232 -2.42077,-4.77336 -4.79975,-6.11536 -2.37898,-1.34211 -5.21241,-1.71786 -7.87893,-1.04235 z"
       id="path122"
       style="stroke-width:1" />
    <path
       d="m 387.78794,150.6795 c -5.10118,1.2884 -8.39832,6.06176 -7.65633,11.10346 -4.81827,2.76473 -6.49706,8.71907 -3.78413,13.45202 2.70819,4.73752 8.82499,6.54482 13.81517,4.08439 4.01134,-1.89675 7.22503,-5.06415 9.10326,-8.97847 1.87348,-3.90997 2.30015,-8.32534 1.20107,-12.50375 -0.69562,-2.57233 -2.42077,-4.77337 -4.79976,-6.11537 -2.37898,-1.34211 -5.21241,-1.71786 -7.87892,-1.04235 z"
       id="path124"
       style="stroke-width:1" />
    <path
       d="m 308.03348,179.322 c 4.99445,2.46044 11.10662,0.65314 13.81991,-4.08439 2.70819,-4.73306 1.03414,-10.6874 -3.78412,-13.45201 0.76981,-5.25644 -2.84269,-10.18189 -8.24066,-11.22876 -5.39334,-1.04682 -10.7031,2.14733 -12.09494,7.28305 -1.09907,4.1783 -0.67706,8.59379 1.20106,12.50376 1.87348,3.91443 5.08729,7.08172 9.09863,8.97847 z"
       id="path126"
       style="stroke-width:1" />
    <path
       d="m 395.97945,201.87181 c 0.76981,-5.25643 -2.84269,-10.18188 -8.24066,-11.22875 -5.39334,-1.04682 -10.7031,2.14733 -12.09494,7.28305 -1.09907,4.1783 -0.67706,8.59378 1.20106,12.50375 1.87348,3.91444 5.08729,7.08172 9.09863,8.97847 4.99445,2.46044 11.10662,0.65314 13.81991,-4.08439 2.70819,-4.73306 1.03414,-10.6874 -3.78412,-13.45201 z"
       id="path128"
       style="stroke-width:1" />
  </g>
</svg>
