<?xml version="1.0" encoding="UTF-8" standalone="no"?>
<svg
   width="700pt"
   height="700pt"
   version="1.1"
   viewBox="0 0 700 700"
   id="svg18861"
   xmlns="http://www.w3.org/2000/svg"
   xmlns:svg="http://www.w3.org/2000/svg">
  <defs
     id="defs18787">
    <symbol
       id="t"
       overflow="visible">
      <path
         d="m5.625-0.34375c-0.28125 0.15625-0.58594 0.27344-0.90625 0.34375-0.3125 0.082031-0.64062 0.125-0.98438 0.125-1.0234 0-1.8281-0.28516-2.4219-0.85938-0.59375-0.57031-0.89062-1.3477-0.89062-2.3281 0-0.97656 0.29688-1.75 0.89062-2.3125 0.59375-0.57031 1.3984-0.85938 2.4219-0.85938 0.34375 0 0.67188 0.039063 0.98438 0.10938 0.32031 0.074219 0.625 0.1875 0.90625 0.34375v1.2656c-0.29297-0.19531-0.57812-0.34375-0.85938-0.4375s-0.58594-0.14062-0.90625-0.14062c-0.5625 0-1.0078 0.18359-1.3281 0.54688-0.32422 0.35547-0.48438 0.85156-0.48438 1.4844 0 0.63672 0.16016 1.1367 0.48438 1.5 0.32031 0.35547 0.76562 0.53125 1.3281 0.53125 0.32031 0 0.625-0.046875 0.90625-0.14062s0.56641-0.23828 0.85938-0.4375z"
         id="path18727" />
    </symbol>
    <symbol
       id="c"
       overflow="visible">
      <path
         d="m4.125-3.3438c-0.13672-0.0625-0.26562-0.10156-0.39062-0.125-0.125-0.03125-0.25-0.046875-0.375-0.046875-0.38672 0-0.68359 0.12109-0.89062 0.35938-0.19922 0.24219-0.29688 0.58594-0.29688 1.0312v2.125h-1.4688v-4.5938h1.4688v0.75c0.1875-0.30078 0.39844-0.51953 0.64062-0.65625 0.25-0.13281 0.54688-0.20312 0.89062-0.20312h0.15625c0.0625 0 0.14453 0.011719 0.25 0.03125z"
         id="path18730" />
    </symbol>
    <symbol
       id="b"
       overflow="visible">
      <path
         d="m5.2969-2.3125v0.42188h-3.4375c0.03125 0.34375 0.14844 0.60547 0.35938 0.78125 0.21875 0.16797 0.51953 0.25 0.90625 0.25 0.3125 0 0.62891-0.046875 0.95312-0.14062 0.32031-0.09375 0.65625-0.22656 1-0.40625v1.125c-0.34375 0.13672-0.69531 0.23438-1.0469 0.29688-0.34375 0.070312-0.6875 0.10938-1.0312 0.10938-0.83594 0-1.4844-0.21094-1.9531-0.64062-0.46094-0.42578-0.6875-1.0195-0.6875-1.7812 0-0.75 0.22266-1.3359 0.67188-1.7656 0.45703-0.42578 1.082-0.64062 1.875-0.64062 0.72656 0 1.3047 0.21875 1.7344 0.65625 0.4375 0.42969 0.65625 1.0078 0.65625 1.7344zm-1.5156-0.48438c0-0.28125-0.085938-0.50391-0.25-0.67188-0.15625-0.17578-0.36719-0.26562-0.625-0.26562-0.29297 0-0.52734 0.085937-0.70312 0.25-0.17969 0.15625-0.28906 0.38672-0.32812 0.6875z"
         id="path18733" />
    </symbol>
    <symbol
       id="d"
       overflow="visible">
      <path
         d="m2.7656-2.0625c-0.30469 0-0.53125 0.054688-0.6875 0.15625-0.15625 0.10547-0.23438 0.25781-0.23438 0.45312 0 0.1875 0.0625 0.33594 0.1875 0.4375 0.125 0.10547 0.29688 0.15625 0.51562 0.15625 0.28125 0 0.51562-0.097656 0.70312-0.29688 0.1875-0.19531 0.28125-0.44531 0.28125-0.75v-0.15625zm2.25-0.5625v2.625h-1.4844v-0.6875c-0.19922 0.28125-0.42188 0.49219-0.67188 0.625-0.24219 0.125-0.53906 0.1875-0.89062 0.1875-0.48047 0-0.87109-0.14062-1.1719-0.42188-0.29297-0.28125-0.4375-0.64062-0.4375-1.0781 0-0.53906 0.17969-0.9375 0.54688-1.1875 0.375-0.25 0.95703-0.375 1.75-0.375h0.875v-0.125c0-0.22656-0.09375-0.39453-0.28125-0.5-0.17969-0.11328-0.46484-0.17188-0.85938-0.17188-0.3125 0-0.60547 0.03125-0.875 0.09375-0.27344 0.0625-0.52344 0.15625-0.75 0.28125v-1.1094c0.3125-0.082031 0.625-0.14062 0.9375-0.17188 0.32031-0.039063 0.64062-0.0625 0.95312-0.0625 0.83203 0 1.4297 0.16406 1.7969 0.48438 0.375 0.32422 0.5625 0.85547 0.5625 1.5938z"
         id="path18736" />
    </symbol>
    <symbol
       id="a"
       overflow="visible">
      <path
         d="m2.3125-5.9062v1.3125h1.5156v1.0469h-1.5156v1.9531c0 0.21094 0.039062 0.35547 0.125 0.4375 0.082031 0.074219 0.25 0.10938 0.5 0.10938h0.76562v1.0469h-1.2656c-0.58594 0-0.99609-0.11719-1.2344-0.35938-0.24219-0.23828-0.35938-0.64844-0.35938-1.2344v-1.9531h-0.73438v-1.0469h0.73438v-1.3125z"
         id="path18739" />
    </symbol>
    <symbol
       id="i"
       overflow="visible">
      <path
         d="m3.8281-3.9219v-2.4688h1.4844v6.3906h-1.4844v-0.67188c-0.19922 0.27344-0.42188 0.47656-0.67188 0.60938-0.24219 0.125-0.52344 0.1875-0.84375 0.1875-0.5625 0-1.0273-0.22266-1.3906-0.67188-0.36719-0.45703-0.54688-1.0391-0.54688-1.75 0-0.70703 0.17969-1.2852 0.54688-1.7344 0.36328-0.44531 0.82812-0.67188 1.3906-0.67188 0.32031 0 0.60156 0.0625 0.84375 0.1875 0.25 0.125 0.47266 0.32422 0.67188 0.59375zm-0.96875 2.9688c0.32031 0 0.5625-0.11328 0.71875-0.34375 0.16406-0.22656 0.25-0.5625 0.25-1s-0.085937-0.76953-0.25-1c-0.15625-0.22656-0.39844-0.34375-0.71875-0.34375-0.3125 0-0.55469 0.11719-0.71875 0.34375-0.15625 0.23047-0.23438 0.5625-0.23438 1s0.078125 0.77344 0.23438 1c0.16406 0.23047 0.40625 0.34375 0.71875 0.34375z"
         id="path18742" />
    </symbol>
    <symbol
       id="h"
       overflow="visible">
      <path
         d="m3.1562-0.95312c0.3125 0 0.55078-0.11328 0.71875-0.34375 0.16406-0.22656 0.25-0.5625 0.25-1s-0.085938-0.76953-0.25-1c-0.16797-0.22656-0.40625-0.34375-0.71875-0.34375s-0.55859 0.11719-0.73438 0.34375c-0.16797 0.23047-0.25 0.5625-0.25 1s0.082031 0.77344 0.25 1c0.17578 0.23047 0.42188 0.34375 0.73438 0.34375zm-0.98438-2.9688c0.20703-0.26953 0.42969-0.46875 0.67188-0.59375 0.25-0.125 0.53516-0.1875 0.85938-0.1875 0.5625 0 1.0234 0.22656 1.3906 0.67188 0.36328 0.44922 0.54688 1.0273 0.54688 1.7344 0 0.71094-0.18359 1.293-0.54688 1.75-0.36719 0.44922-0.82812 0.67188-1.3906 0.67188-0.32422 0-0.60938-0.0625-0.85938-0.1875-0.24219-0.13281-0.46484-0.33594-0.67188-0.60938v0.67188h-1.4688v-6.3906h1.4688z"
         id="path18745" />
    </symbol>
    <symbol
       id="g"
       overflow="visible">
      <path
         d="m0.10938-4.5938h1.4688l1.2344 3.1094 1.0469-3.1094h1.4688l-1.9375 5.0312c-0.1875 0.50781-0.41406 0.86328-0.67188 1.0625-0.26172 0.20703-0.60547 0.3125-1.0312 0.3125h-0.84375v-0.96875h0.45312c0.25 0 0.42969-0.042969 0.54688-0.125 0.11328-0.074219 0.20312-0.21484 0.26562-0.42188l0.046875-0.125z"
         id="path18748" />
    </symbol>
    <symbol
       id="f"
       overflow="visible">
      <path
         d="m4.9688-3.8281c0.1875-0.28906 0.40625-0.50781 0.65625-0.65625 0.25781-0.14453 0.53906-0.21875 0.84375-0.21875 0.53125 0 0.92969 0.16406 1.2031 0.48438 0.28125 0.32422 0.42188 0.79688 0.42188 1.4219v2.7969h-1.4844v-2.3906c0.007813-0.039063 0.015625-0.078125 0.015625-0.10938v-0.17188c0-0.32031-0.046875-0.55469-0.14062-0.70312-0.09375-0.14453-0.25-0.21875-0.46875-0.21875-0.28125 0-0.5 0.11719-0.65625 0.34375-0.14844 0.23047-0.21875 0.5625-0.21875 1v2.25h-1.4844v-2.3906c0-0.50781-0.046875-0.83594-0.14062-0.98438-0.085937-0.14453-0.23438-0.21875-0.45312-0.21875-0.28125 0-0.5 0.11719-0.65625 0.34375-0.15625 0.23047-0.23438 0.55859-0.23438 0.98438v2.2656h-1.4688v-4.5938h1.4688v0.67188c0.1875-0.25781 0.39453-0.45312 0.625-0.57812 0.22656-0.13281 0.48828-0.20312 0.78125-0.20312 0.3125 0 0.58594 0.078125 0.82812 0.23438 0.25 0.14844 0.4375 0.35938 0.5625 0.64062z"
         id="path18751" />
    </symbol>
    <symbol
       id="s"
       overflow="visible">
      <path
         d="m0.29688-4.5938h1.4219l0.78125 3.1719 0.76562-3.1719h1.2344l0.76562 3.125 0.78125-3.125h1.4219l-1.2031 4.5938h-1.6094l-0.76562-3.1562-0.78125 3.1562h-1.6094z"
         id="path18754" />
    </symbol>
    <symbol
       id="r"
       overflow="visible">
      <path
         d="m0.70312-4.5938h1.4688v4.5938h-1.4688zm0-1.7969h1.4688v1.2031h-1.4688z"
         id="path18757" />
    </symbol>
    <symbol
       id="q"
       overflow="visible">
      <path
         d="m3.7344-6.3906v0.96875h-0.8125c-0.21094 0-0.35547 0.039063-0.4375 0.10938-0.085937 0.074219-0.125 0.20312-0.125 0.39062v0.32812h1.25v1.0469h-1.25v3.5469h-1.4688v-3.5469h-0.73438v-1.0469h0.73438v-0.32812c0-0.5 0.14062-0.86719 0.42188-1.1094 0.28125-0.23828 0.71094-0.35938 1.2969-0.35938z"
         id="path18760" />
    </symbol>
    <symbol
       id="e"
       overflow="visible">
      <path
         d="m2.8906-3.6562c-0.32422 0-0.57422 0.12109-0.75 0.35938-0.16797 0.23047-0.25 0.5625-0.25 1s0.082031 0.77734 0.25 1.0156c0.17578 0.23047 0.42578 0.34375 0.75 0.34375 0.32031 0 0.56641-0.11328 0.73438-0.34375 0.17578-0.23828 0.26562-0.57812 0.26562-1.0156s-0.089844-0.76953-0.26562-1c-0.16797-0.23828-0.41406-0.35938-0.73438-0.35938zm0-1.0469c0.78906 0 1.4062 0.21484 1.8438 0.64062 0.44531 0.42969 0.67188 1.0156 0.67188 1.7656 0 0.76172-0.22656 1.3555-0.67188 1.7812-0.4375 0.42969-1.0547 0.64062-1.8438 0.64062-0.79297 0-1.4141-0.21094-1.8594-0.64062-0.44922-0.42578-0.67188-1.0195-0.67188-1.7812 0-0.75 0.22266-1.3359 0.67188-1.7656 0.44531-0.42578 1.0664-0.64062 1.8594-0.64062z"
         id="path18763" />
    </symbol>
    <symbol
       id="p"
       overflow="visible">
      <path
         d="m5.3281-2.7969v2.7969h-1.4844v-2.1406c0-0.39453-0.011719-0.66406-0.03125-0.8125-0.011719-0.15625-0.039062-0.26953-0.078125-0.34375-0.0625-0.09375-0.14844-0.16406-0.25-0.21875-0.09375-0.050781-0.20312-0.078125-0.32812-0.078125-0.30469 0-0.54297 0.12109-0.71875 0.35938-0.17969 0.23047-0.26562 0.55469-0.26562 0.96875v2.2656h-1.4688v-6.3906h1.4688v2.4688c0.22656-0.26953 0.46094-0.46875 0.70312-0.59375 0.25-0.125 0.52344-0.1875 0.82812-0.1875 0.53125 0 0.92969 0.16406 1.2031 0.48438 0.28125 0.32422 0.42188 0.79688 0.42188 1.4219z"
         id="path18766" />
    </symbol>
    <symbol
       id="o"
       overflow="visible">
      <path
         d="m0.76562-6.125h1.7656l2.2344 4.2031v-4.2031h1.5v6.125h-1.7656l-2.2344-4.2031v4.2031h-1.5z"
         id="path18769" />
    </symbol>
    <symbol
       id="n"
       overflow="visible">
      <path
         d="m0.65625-1.7969v-2.7969h1.4844v0.45312c0 0.25-0.007813 0.5625-0.015625 0.9375v0.75c0 0.375 0.007812 0.64844 0.03125 0.8125 0.019531 0.15625 0.050781 0.27344 0.09375 0.34375 0.0625 0.09375 0.14062 0.16797 0.23438 0.21875 0.10156 0.054687 0.21875 0.078125 0.34375 0.078125 0.30078 0 0.53906-0.11328 0.71875-0.34375 0.17578-0.23828 0.26562-0.56641 0.26562-0.98438v-2.2656h1.4688v4.5938h-1.4688v-0.67188c-0.21875 0.27344-0.45312 0.47656-0.70312 0.60938-0.25 0.125-0.52734 0.1875-0.82812 0.1875-0.53125 0-0.9375-0.16016-1.2188-0.48438-0.27344-0.33203-0.40625-0.8125-0.40625-1.4375z"
         id="path18772" />
    </symbol>
    <symbol
       id="m"
       overflow="visible">
      <path
         d="m5.3281-2.7969v2.7969h-1.4844v-2.1406c0-0.39453-0.011719-0.66406-0.03125-0.8125-0.011719-0.15625-0.039062-0.26953-0.078125-0.34375-0.0625-0.09375-0.14844-0.16406-0.25-0.21875-0.09375-0.050781-0.20312-0.078125-0.32812-0.078125-0.30469 0-0.54297 0.12109-0.71875 0.35938-0.17969 0.23047-0.26562 0.55469-0.26562 0.96875v2.2656h-1.4688v-4.5938h1.4688v0.67188c0.22656-0.26953 0.46094-0.46875 0.70312-0.59375 0.25-0.125 0.52344-0.1875 0.82812-0.1875 0.53125 0 0.92969 0.16406 1.2031 0.48438 0.28125 0.32422 0.42188 0.79688 0.42188 1.4219z"
         id="path18775" />
    </symbol>
    <symbol
       id="l"
       overflow="visible">
      <path
         d="m0.76562-6.125h2.625c0.78125 0 1.3789 0.17188 1.7969 0.51562 0.41406 0.34375 0.625 0.83984 0.625 1.4844 0 0.63672-0.21094 1.1328-0.625 1.4844-0.41797 0.34375-1.0156 0.51562-1.7969 0.51562h-1.0312v2.125h-1.5938zm1.5938 1.1406v1.7188h0.85938c0.3125 0 0.55078-0.070313 0.71875-0.21875 0.16406-0.15625 0.25-0.36719 0.25-0.64062 0-0.28125-0.085938-0.49219-0.25-0.64062-0.16797-0.14453-0.40625-0.21875-0.71875-0.21875z"
         id="path18778" />
    </symbol>
    <symbol
       id="k"
       overflow="visible">
      <path
         d="m0.70312-4.5938h1.4688v4.5156c0 0.61328-0.15234 1.082-0.45312 1.4062-0.29297 0.32031-0.71484 0.48438-1.2656 0.48438h-0.73438v-0.96875h0.25c0.28125 0 0.47266-0.0625 0.57812-0.1875 0.10156-0.125 0.15625-0.37109 0.15625-0.73438zm0-1.7969h1.4688v1.2031h-1.4688z"
         id="path18781" />
    </symbol>
    <symbol
       id="j"
       overflow="visible">
      <path
         d="m4.4219-4.4531v1.2031c-0.19922-0.13281-0.40234-0.23438-0.60938-0.29688-0.19922-0.070313-0.40625-0.10938-0.625-0.10938-0.40625 0-0.72656 0.12109-0.95312 0.35938-0.23047 0.24219-0.34375 0.57422-0.34375 1 0 0.42969 0.11328 0.76172 0.34375 1 0.22656 0.24219 0.54688 0.35938 0.95312 0.35938 0.22656 0 0.44531-0.03125 0.65625-0.09375 0.20703-0.070312 0.39844-0.17578 0.57812-0.3125v1.2031c-0.23047 0.085938-0.46484 0.14453-0.70312 0.1875-0.24219 0.050781-0.47656 0.078125-0.70312 0.078125-0.83594 0-1.4844-0.21094-1.9531-0.64062-0.46875-0.42578-0.70312-1.0195-0.70312-1.7812 0-0.75781 0.23438-1.3477 0.70312-1.7656 0.46875-0.42578 1.1172-0.64062 1.9531-0.64062 0.23828 0 0.47266 0.023437 0.70312 0.0625 0.23828 0.042969 0.47266 0.10547 0.70312 0.1875z"
         id="path18784" />
    </symbol>
  </defs>
  <g
     id="g18859">
    <g
       id="g22427"
       transform="matrix(-0.63544709,1.1006425,-1.1006267,-0.63545624,902.47798,176.20178)"
       style="stroke-width:0.786842">
      <g
         id="g24244"
         transform="matrix(0.72660168,5.3490894e-5,5.3490896e-5,0.72666345,91.154782,93.773028)"
         style="stroke-width:1.08286">
        <g
           id="g24223"
           style="stroke-width:1.08286" />
        <g
           id="g24231"
           style="stroke-width:1.08286">
          <g
             id="g24226"
             transform="translate(-0.39090203,0.58707014)"
             style="stroke-width:1.08286" />
        </g>
        <g
           id="g27530"
           transform="matrix(1.3349383,-1.1846664e-5,-1.1846665e-5,1.3349245,-136.23568,-150.92473)"
           style="stroke-width:0.811172">
          <g
             id="g24126"
             style="fill:#8c6c30;fill-opacity:1;stroke-width:0.811172"
             transform="translate(30.656777,37.937873)">
            <path
               id="rect24041"
               style="fill:#8c6c30;fill-opacity:1;stroke:#000000;stroke-width:4.86705;stroke-opacity:1"
               d="m -506.88692,20.10918 c -0.55123,-0.0038 -1.10839,0.01771 -1.67013,0.06685 -2.5569,0.223681 -4.91298,0.99863 -6.97444,2.164568 l -152.45209,55.488091 c -7.93598,2.888479 -11.84093,12.039336 -8.75522,20.517293 3.08571,8.477958 11.9592,12.978268 19.89518,10.089788 l 135.35084,-49.26409 12.27989,140.3546 c 0.73612,8.41306 8.56524,14.55283 17.55308,13.76656 8.98784,-0.78627 15.63012,-8.19234 14.89401,-16.60539 L -491.00512,33.943743 c -0.69011,-7.887236 -7.61331,-13.777063 -15.8818,-13.834563 z m -103.7636,91.41093 c -5.95528,0.16004 -11.96923,3.71185 -15.48184,9.79588 l -60.95687,105.57975 c -0.7287,1.26214 -1.293,2.56471 -1.73006,3.88077 -3.69659,3.93706 -5.18653,8.38201 -3.38867,11.49596 l 50.03474,86.6611 c 0.42178,0.73054 0.99926,1.33928 1.70125,1.83031 2.66102,3.79616 6.79038,6.23668 11.45693,6.23668 h 106.31663 c 8.06618,0 14.55975,-7.26294 14.55975,-16.28498 0,-9.02203 -6.49357,-16.28612 -14.55975,-16.28612 h -96.01346 l -37.76638,-65.41191 58.55253,-101.41543 c 5.10926,-8.8495 2.9321,-19.60578 -4.8813,-24.11684 -2.44168,-1.40971 -5.13655,-2.03791 -7.8435,-1.96517 z m 64.84461,61.21186 c -5.86692,0.0974 -11.49943,3.17227 -14.63352,8.62831 l -30.01854,52.25737 c -0.7433,1.294 -1.30033,2.64343 -1.6805,4.01794 -1.06362,2.27218 -1.66783,4.865 -1.66783,7.62324 0,9.02204 6.43587,16.28498 14.42951,16.28498 h 49.82612 c 7.99363,0 14.42951,-7.26294 14.42951,-16.28498 0,-9.02203 -6.43588,-16.28612 -14.42951,-16.28612 h -17.97263 l 17.28337,-30.08727 c 4.77576,-8.31396 1.88539,-18.91558 -6.47996,-23.76991 -2.87559,-1.66867 -6.01287,-2.43458 -9.08602,-2.38356 z"
               transform="rotate(-120)" />
          </g>
          <path
             id="rect24041-0"
             style="fill:#789b60;fill-opacity:1;stroke:#000000;stroke-width:4.86705;stroke-opacity:1"
             d="m 276.19316,200.43644 c -0.55123,-0.004 -1.10837,0.0177 -1.67011,0.0668 -2.55688,0.22367 -4.91293,0.99862 -6.97436,2.16455 l -152.4501,55.48775 c -7.93588,2.88846 -11.84073,12.03939 -8.75501,20.51745 3.08574,8.47807 11.95916,12.97848 19.89504,10.09002 l 135.34908,-49.26378 12.28063,140.35619 c 0.73616,8.41316 8.56524,14.55305 17.55298,13.76681 8.98773,-0.78622 15.62989,-8.19232 14.89375,-16.60546 L 292.07487,214.27124 c -0.69015,-7.88732 -7.61331,-13.77725 -15.88171,-13.8348 z M 172.43124,291.8477 c -5.95521,0.16001 -11.96907,3.71183 -15.48161,9.7959 L 95.99407,407.2241 c -0.72868,1.26216 -1.29297,2.56472 -1.73001,3.88081 -3.696524,3.93706 -5.186424,8.38206 -3.38856,11.49604 l 50.03473,86.66236 c 0.42179,0.73055 0.99927,1.3393 1.70125,1.83035 2.66102,3.7962 6.79035,6.23677 11.45685,6.23681 l 106.31548,6.6e-4 c 8.0661,5e-5 14.55955,-7.26292 14.5595,-16.28507 -7e-5,-9.02213 -6.49361,-16.28633 -14.5597,-16.28639 l -96.01243,-5.9e-4 -37.76638,-65.41284 58.55126,-101.41617 c 5.10915,-8.84956 2.93195,-19.60597 -4.88139,-24.11713 -2.44167,-1.40974 -5.13651,-2.03796 -7.84343,-1.96524 z m 64.8443,61.21293 c -5.86686,0.0974 -11.49929,3.17222 -14.63331,8.62831 l -30.01789,52.25775 c -0.74353,1.29387 -1.30029,2.64345 -1.68046,4.01797 -1.0636,2.27219 -1.66778,4.86504 -1.66777,7.62331 6e-5,9.02213 6.43591,16.2852 14.42946,16.28525 l 49.82559,3e-4 c 7.99354,4e-5 14.4293,-7.26293 14.42924,-16.28506 -5e-5,-9.02213 -6.4359,-16.28634 -14.42945,-16.28638 l -17.97244,-1.2e-4 17.28299,-30.08749 c 4.77562,-8.31403 1.88526,-18.91577 -6.48004,-23.77021 -2.87572,-1.66844 -6.01282,-2.43464 -9.08593,-2.38363 z" />
          <path
             id="rect24041-8"
             style="fill:#c5ad7d;fill-opacity:1;stroke:#000000;stroke-width:4.86705;stroke-opacity:1"
             d="m 522.5676,311.7257 c 0.27889,-0.47546 0.53885,-0.96874 0.77716,-1.47978 1.0847,-2.32617 1.59159,-4.75406 1.61255,-7.1223 l 28.16996,-159.7711 c 1.4664,-8.31697 -4.5061,-16.27426 -13.39111,-17.84104 -8.885,-1.56678 -17.21905,3.86762 -18.68545,12.1846 l -25.00969,141.849 -127.69134,-59.54419 c -7.65403,-3.56912 -16.88574,0.14109 -20.69862,8.31788 -3.8129,8.17678 -0.72007,17.63224 6.93395,21.20138 l 148.0607,69.04207 c 7.17564,3.34605 15.73794,0.2954 19.92189,-6.83652 z M 495.28353,176.15799 c 2.83897,-5.23741 2.7699,-12.22155 -0.74279,-18.30562 L 433.58311,52.271547 c -0.72871,-1.262158 -1.57463,-2.402158 -2.49586,-3.438702 -1.56136,-5.169887 -4.66588,-8.682729 -8.26156,-8.682761 L 322.7576,40.149657 c -0.84355,-2e-5 -1.65947,0.195721 -2.43571,0.55814 -4.61807,0.40637 -8.79628,2.76219 -11.12949,6.803512 l -53.15718,92.072241 c -4.03301,6.98546 -0.98979,16.24057 6.82359,20.75169 7.81335,4.51111 17.35101,2.51968 21.38401,-4.4658 l 48.00571,-83.149482 75.53155,2.37e-4 58.55334,101.416415 c 5.10937,8.84958 15.5132,12.34238 23.32655,7.83139 2.44166,-1.40967 4.33311,-3.42937 5.62356,-5.81001 z m -85.43302,25.5501 c 2.84902,-5.12959 3.0023,-11.54491 -0.15578,-16.98718 l -30.24759,-52.12586 c -0.74875,-1.29087 -1.63915,-2.44786 -2.63943,-3.46436 -1.43598,-2.05724 -3.37935,-3.87693 -5.76806,-5.25608 -7.81338,-4.51113 -17.32119,-2.56908 -21.31792,4.35355 l -24.91253,43.15038 c -3.99672,6.92264 -0.92466,16.12779 6.88871,20.63891 7.81337,4.51112 17.32217,2.56964 21.3189,-4.353 l 8.98612,-15.56466 17.41504,30.01171 c 4.81236,8.29293 15.43881,11.09078 23.8254,6.27342 2.88273,-1.65624 5.11479,-3.98992 6.60715,-6.67684 z" />
        </g>
      </g>
    </g>
  </g>
</svg>
